<?xml version="1.0" encoding="UTF-8"?>
<svg id="a" data-name="Layer 1" xmlns="http://www.w3.org/2000/svg" xmlns:xlink="http://www.w3.org/1999/xlink" viewBox="0 0 55.89 55.73">
  <defs>
    <style>
      .l, .m, .n, .o, .p, .q, .r, .s, .t, .u {
        stroke-width: 0px;
      }

      .m {
        fill: url(#b);
      }

      .n {
        fill: url(#c);
      }

      .o {
        fill: url(#e);
      }

      .p {
        fill: url(#f);
      }

      .q {
        fill: url(#d);
      }

      .r {
        fill: url(#j);
      }

      .s {
        fill: url(#i);
      }

      .t {
        fill: url(#h);
      }

      .u {
        fill: url(#g);
      }
    </style>
    <radialGradient id="b" cx="-492.05" cy="-442.57" fx="-492.05" fy="-442.57" r="10.79" gradientTransform="translate(111.84 -623.44) rotate(-39.34) scale(1 -1)" gradientUnits="userSpaceOnUse">
      <stop offset="0" stop-color="#ff8dc7"/>
      <stop offset="1" stop-color="#ffb6c1"/>
    </radialGradient>
    <radialGradient id="c" cx="-1268.67" cy="1536.66" fx="-1268.67" fy="1536.66" r="10.8" gradientTransform="translate(-1911.23 -359.81) rotate(140.68) scale(1 -1)" gradientUnits="userSpaceOnUse">
      <stop offset="0" stop-color="#ff8dc7"/>
      <stop offset="1" stop-color="#ffb6c1"/>
    </radialGradient>
    <radialGradient id="d" cx="-1817.7" cy="107.06" fx="-1817.7" fy="107.06" r="10.79" gradientTransform="translate(-964.63 -1480.45) rotate(-126.52) scale(1 -1)" gradientUnits="userSpaceOnUse">
      <stop offset="0" stop-color="#ff8dc7"/>
      <stop offset="1" stop-color="#ffb6c1"/>
    </radialGradient>
    <radialGradient id="e" cx="138.01" cy="795.4" fx="138.01" fy="795.4" r="10.8" gradientTransform="translate(-615.31 502.85) rotate(42.66) scale(1 -1)" gradientUnits="userSpaceOnUse">
      <stop offset="0" stop-color="#ff8dc7"/>
      <stop offset="1" stop-color="#ffb6c1"/>
    </radialGradient>
    <radialGradient id="f" cx="-1797.95" cy="27.63" fx="-1797.95" fy="27.63" r=".23" gradientTransform="translate(53966.42 -801.64) scale(30)" gradientUnits="userSpaceOnUse">
      <stop offset="0" stop-color="#ff0"/>
      <stop offset="1" stop-color="gold"/>
    </radialGradient>
    <radialGradient id="g" cx="14.36" cy="38.79" fx="14.36" fy="38.79" r="10.79" gradientTransform="translate(0 57.22) scale(1 -1)" gradientUnits="userSpaceOnUse">
      <stop offset="0" stop-color="#ff8dc7"/>
      <stop offset="1" stop-color="#ffb6c1"/>
    </radialGradient>
    <radialGradient id="h" cx="-1411.41" cy="-399.94" fx="-1411.41" fy="-399.94" r="10.79" gradientTransform="translate(-381.68 -1369.92) rotate(-90) scale(1 -1)" gradientUnits="userSpaceOnUse">
      <stop offset="0" stop-color="#ff8dc7"/>
      <stop offset="1" stop-color="#ffb6c1"/>
    </radialGradient>
    <radialGradient id="i" cx="-1808.05" cy="1035" fx="-1808.05" fy="1035" r="10.8" gradientTransform="translate(-1766.46 -997.63) rotate(-180) scale(1 -1)" gradientUnits="userSpaceOnUse">
      <stop offset="0" stop-color="#ff8dc7"/>
      <stop offset="1" stop-color="#ffb6c1"/>
    </radialGradient>
    <radialGradient id="j" cx="-378.39" cy="1477.01" fx="-378.39" fy="1477.01" r="10.78" gradientTransform="translate(-1439.42 392.48) rotate(90) scale(1 -1)" gradientUnits="userSpaceOnUse">
      <stop offset="0" stop-color="#ff8dc7"/>
      <stop offset="1" stop-color="#ffb6c1"/>
    </radialGradient>
  </defs>
  <path class="m" d="m22.82,34.91c-4,2.4-7.9,6.8-12.9,6.5-7.6-.3-12-9.4-7.5-15.5,5.2-6.6,11.4-3.8,17.9-1.3.3.2,1.4.5,1.7.6,0-.1.8,9.7.8,9.7Z"/>
  <path class="n" d="m32.92,21.01c4-2.4,7.9-6.8,12.9-6.5,7.6.3,12,9.4,7.5,15.5-5.2,6.6-11.4,3.8-17.9,1.3-.3-.2-1.4-.5-1.7-.6,0,0-.8-9.7-.8-9.7Z"/>
  <path class="q" d="m35.72,33.41c2.2,4.1,6.4,8.3,5.9,13.2-.7,7.5-10,11.5-15.9,6.7-6.3-5.5-3.3-11.6-.5-18,.2-.3.6-1.4.7-1.7,0,.1,9.8-.2,9.8-.2Z"/>
  <path class="o" d="m22.58,22.84c-2.9-3.6-7.8-6.9-8.2-11.9-.8-7.5,7.6-13.2,14.3-9.6,7.2,4.3,5.4,10.7,3.8,17.5-.1.3-.3,1.5-.4,1.8,0,.1-9.5,2.2-9.5,2.2Z"/>
  <circle class="p" cx="28.02" cy="27.41" r="6.9"/>
  <path class="u" d="m20.22,28.51c-4.6-.7-10.4.2-14.1-3.2C.42,20.31,2.82,10.51,10.12,8.51c8.2-1.8,11.2,4.3,14.7,10.3.2.3.8,1.3,1,1.6,0,.1-5.6,8.1-5.6,8.1Z"/>
  <path class="t" d="m28.42,35.61c-.7,4.6.2,10.4-3.2,14.1-5,5.7-14.8,3.3-16.8-4-1.8-8.2,4.3-11.2,10.3-14.7.3-.2,1.3-.8,1.6-1,0,.1,8.1,5.6,8.1,5.6Z"/>
  <path class="s" d="m35.72,27.21c4.6.7,10.4-.2,14.1,3.2,5.7,5,3.3,14.8-4,16.8-8.2,1.8-11.2-4.3-14.7-10.3-.2-.3-.8-1.3-1-1.6.1,0,5.6-8.1,5.6-8.1Z"/>
  <path class="r" d="m27.44,19.99c.7-4.6-.2-10.4,3.2-14.1,5-5.7,14.8-3.3,16.8,4,1.8,8.2-4.3,11.2-10.3,14.7-.3.2-1.3.8-1.6,1-.1-.1-8.1-5.6-8.1-5.6Z"/>
  <path class="l" d="m54.32,29.41c3.9-5.8.1-14.1-6.7-15.1,1.1-5.3-2.3-10.5-7.7-11.6-2.7-.6-5.5,0-7.7,1.7C27.42-3.09,15.62-.49,14.32,8.21c-5.3-1.1-10.6,2.3-11.6,7.6-.6,2.7,0,5.5,1.7,7.7C-.08,26.51-1.38,32.61,1.62,37.11c1.5,2.3,3.9,3.8,6.6,4.3-1.4,5.9,3.7,12,9.7,11.8,2.1,0,4.1-.7,5.7-1.9,3,4.5,9.1,5.8,13.6,2.8,2.3-1.5,3.9-3.9,4.3-6.6,1.32.3,2.68.3,4,0,6.8-1.3,10.1-9.9,5.9-15.4,1.2-.6,2.1-1.6,2.9-2.7Zm-24.8-9.4l.8-8.8c.1-.8.3-1.7.7-2.4,2-3.9,6.8-5.4,10.6-3.3.2.1.4.2.6.4,5,3.1,4.6,10.7-.5,13.6l-7.1,4.2c-.27-.55-.91-1.65-2.18-2.54-1.17-.82-2.32-1.07-2.92-1.16Zm-4.9,13c-6.6-4.6-.2-14.4,6.6-10.2,6.6,4.6.3,14.4-6.6,10.2Zm-2.2-30.9c3.3-.7,6.6.8,8.3,3.6-.6.6-1.1,1.3-1.5,2.1-.5,1-.8,2.1-.9,3.2l-.8,8.9c-.7,0-1.5.2-2.2.4l-4.3-7.3c-1.1-1.9-2.8-3.3-4.8-4.2.4-3.3,2.9-6,6.2-6.7Zm-2.4,24.2c-2.97-.27-5.93-.53-8.9-.8-.8-.1-1.7-.3-2.4-.7-3.9-2-5.4-6.8-3.3-10.6.1-.2.2-.4.4-.6,3.1-5,10.7-4.6,13.6.5,1.43,2.37,2.87,4.73,4.3,7.1-.49.27-1.07.67-1.64,1.24-1.41,1.41-1.88,3.04-2.06,3.86Zm-17.9,7.1c-.7-3.3.8-6.6,3.6-8.3.6.6,1.3,1.1,2.1,1.5,1,.5,2.1.8,3.2.9l8.9.8c0,.7.2,1.5.4,2.2l-7.2,4.4c-1.9,1.1-3.3,2.8-4.2,4.8-3.5-.6-6.2-3-6.8-6.3Zm24.2,2.4s0,.07-.01.12c-.44,4.96-.26,6.38-.79,8.78-.27,1.24-.42,1.86-.7,2.4-2,3.9-6.8,5.4-10.6,3.3-.2-.1-.4-.2-.6-.4-5-3.1-4.6-10.7.5-13.6.32-.18.72-.44,7.01-4.25,0,0,.09-.05.09-.05.21.52.87,1.34,1.93,2.2,1.34,1.09,2.62,1.46,3.17,1.5Zm7.1,17.9h0c-3.3.7-6.6-.8-8.3-3.6.6-.6,1.1-1.3,1.5-2.1.5-1,.8-2.1.9-3.2l.8-8.9c.7,0,1.5-.2,2.2-.4l4.4,7.3c1.1,1.9,2.8,3.3,4.8,4.2-.6,3.3-3,6-6.3,6.7Zm2.4-24.2c2.93.27,5.87.53,8.8.8.8.1,1.7.3,2.4.7,3.9,2,5.4,6.8,3.3,10.6-.1.2-.2.4-.4.6-3.1,5-10.7,4.6-13.6-.5-1.43-2.37-2.87-4.73-4.3-7.1.51-.2,1.84-.8,2.81-2.25.78-1.16.94-2.3.99-2.85Zm14.3,1.2c-.6-.6-1.3-1.1-2.1-1.5-1-.5-2.1-.8-3.2-.9l-8.9-.8c0-.7-.2-1.5-.4-2.2l7.2-4.4c1.9-1.1,3.3-2.8,4.2-4.8,3.3.4,6,2.9,6.7,6.2.8,3.3-.7,6.7-3.5,8.4Z"/>
</svg>