<?xml version="1.0" encoding="UTF-8"?>
<svg xmlns="http://www.w3.org/2000/svg" xmlns:xlink="http://www.w3.org/1999/xlink" viewBox="0 0 56.52 57.17">
  <defs>
    <radialGradient id="Petal_Gradient" data-name="Petal Gradient" cx="-491.66" cy="-441.8" fx="-491.66" fy="-441.8" r="10.79" gradientTransform="translate(112.41 -621.83) rotate(-39.34) scale(1 -1)" gradientUnits="userSpaceOnUse">
      <stop offset="0" stop-color="#ff8dc7"/>
      <stop offset="1" stop-color="#ffb6c1"/>
    </radialGradient>
    <radialGradient id="Petal_Gradient-2" data-name="Petal Gradient" cx="-1268.28" cy="1537.43" fx="-1268.28" fy="1537.43" r="10.8" gradientTransform="translate(-1911.02 -359.88) rotate(140.68) scale(1 -1)" xlink:href="#Petal_Gradient"/>
    <radialGradient id="Petal_Gradient-3" data-name="Petal Gradient" cx="-1817.31" cy="107.83" fx="-1817.31" fy="107.83" r="10.79" gradientTransform="translate(-963.39 -1479.82) rotate(-126.52) scale(1 -1)" xlink:href="#Petal_Gradient"/>
    <radialGradient id="Petal_Gradient-4" data-name="Petal Gradient" cx="138.4" cy="796.17" fx="138.4" fy="796.17" r="10.8" gradientTransform="translate(-615.73 503.92) rotate(42.66) scale(1 -1)" xlink:href="#Petal_Gradient"/>
    <radialGradient id="Petal_Gradient-5" data-name="Petal Gradient" cx="14.75" cy="39.56" fx="14.75" fy="39.56" r="10.79" gradientTransform="translate(0 58.76) scale(1 -1)" xlink:href="#Petal_Gradient"/>
    <radialGradient id="Petal_Gradient-6" data-name="Petal Gradient" cx="-1411.02" cy="-399.17" fx="-1411.02" fy="-399.17" r="10.79" gradientTransform="translate(-380.51 -1368.76) rotate(-90) scale(1 -1)" xlink:href="#Petal_Gradient"/>
    <radialGradient id="Petal_Gradient-7" data-name="Petal Gradient" cx="-1807.66" cy="1035.77" fx="-1807.66" fy="1035.77" r="10.8" gradientTransform="translate(-1765.67 -997.63) rotate(-180) scale(1 -1)" xlink:href="#Petal_Gradient"/>
    <radialGradient id="Petal_Gradient-8" data-name="Petal Gradient" cx="37.99" cy="14.93" fx="37.99" fy="14.93" r="10.82" gradientTransform="matrix(1,0,0,1,0,0)" xlink:href="#Petal_Gradient"/>
    <radialGradient id="Yellow_Gradient" data-name="Yellow Gradient" cx="28.41" cy="28.38" fx="28.41" fy="28.38" r="6.5" gradientUnits="userSpaceOnUse">
      <stop offset="0" stop-color="#ff0"/>
      <stop offset="1" stop-color="gold"/>
    </radialGradient>
  </defs>
  <g id="Petals">
    <path d="M23.21,35.68c-4,2.4-7.9,6.8-12.9,6.5-7.6-.3-12-9.4-7.5-15.5,5.2-6.6,11.4-3.8,17.9-1.3.3.2,1.4.5,1.7.6,0-.1.8,9.7.8,9.7Z" style="fill: url(#Petal_Gradient); stroke: #000; stroke-miterlimit: 10; stroke-width: 2px;"/>
    <path d="M33.31,21.78c4-2.4,7.9-6.8,12.9-6.5,7.6.3,12,9.4,7.5,15.5-5.2,6.6-11.4,3.8-17.9,1.3-.3-.2-1.4-.5-1.7-.6l-.8-9.7Z" style="fill: url(#Petal_Gradient-2); stroke: #000; stroke-miterlimit: 10; stroke-width: 2px;"/>
    <path d="M36.11,34.18c2.2,4.1,6.4,8.3,5.9,13.2-.7,7.5-10,11.5-15.9,6.7-6.3-5.5-3.3-11.6-.5-18,.2-.3.6-1.4.7-1.7,0,.1,9.8-.2,9.8-.2Z" style="fill: url(#Petal_Gradient-3); stroke: #000; stroke-miterlimit: 10; stroke-width: 2px;"/>
    <path d="M22.97,23.61c-2.9-3.6-7.8-6.9-8.2-11.9-.8-7.5,7.6-13.2,14.3-9.6,7.2,4.3,5.4,10.7,3.8,17.5-.1.3-.3,1.5-.4,1.8,0,.1-9.5,2.2-9.5,2.2Z" style="fill: url(#Petal_Gradient-4); stroke: #000; stroke-miterlimit: 10; stroke-width: 2px;"/>
    <path d="M20.61,29.28c-4.6-.7-10.4.2-14.1-3.2C.81,21.08,3.21,11.28,10.51,9.28c8.2-1.8,11.2,4.3,14.7,10.3.2.3.8,1.3,1,1.6,0,.1-5.6,8.1-5.6,8.1Z" style="fill: url(#Petal_Gradient-5); stroke: #000; stroke-miterlimit: 10; stroke-width: 2px;"/>
    <path d="M28.81,36.38c-.7,4.6.2,10.4-3.2,14.1-5,5.7-14.8,3.3-16.8-4-1.8-8.2,4.3-11.2,10.3-14.7.3-.2,1.3-.8,1.6-1,0,.1,8.1,5.6,8.1,5.6Z" style="fill: url(#Petal_Gradient-6); stroke: #000; stroke-miterlimit: 10; stroke-width: 2px;"/>
    <path d="M36.11,27.98c4.6.7,10.4-.2,14.1,3.2,5.7,5,3.3,14.8-4,16.8-8.2,1.8-11.2-4.3-14.7-10.3-.2-.3-.8-1.3-1-1.6.1,0,5.6-8.1,5.6-8.1Z" style="fill: url(#Petal_Gradient-7); stroke: #000; stroke-miterlimit: 10; stroke-width: 2px;"/>
    <path d="M27.83,20.76c.7-4.6-.2-10.4,3.2-14.1,5-5.7,14.8-3.3,16.8,4,1.8,8.2-4.3,11.2-10.3,14.7-.3.2-1.3.8-1.6,1-.1-.1-8.1-5.6-8.1-5.6Z" style="fill: url(#Petal_Gradient-8); stroke: #000; stroke-miterlimit: 10; stroke-width: 2px;"/>
  </g>
  <g id="Black_Outline" data-name="Black Outline">
    <circle cx="28.41" cy="28.38" r="8.5"/>
  </g>
  <g id="Yellow_Circle" data-name="Yellow Circle">
    <circle cx="28.41" cy="28.38" r="6.5" style="fill: url(#Yellow_Gradient);"/>
  </g>
</svg>